<svg data-v-fde0c5aa="" xmlns="http://www.w3.org/2000/svg" viewBox="0 0 300 300" class="iconAbove"><!----><defs data-v-fde0c5aa=""><!----></defs><rect data-v-fde0c5aa="" fill="transparent" x="0" y="0" width="300px" height="300px" class="logo-background-square"></rect><defs data-v-fde0c5aa=""><!----></defs><g data-v-fde0c5aa="" id="a6eeac37-dace-4a14-9376-35187755c72a" fill="#000000" transform="matrix(3.4979149775608738,0,0,3.4979149775608738,16.81689727868316,168.11206941723145)"><path d="M3.72 5.12C3.74 5.11 3.75 5.10 3.81 5.08C3.86 5.05 3.99 5.04 4.17 5.04C4.59 5.04 4.94 4.69 4.94 4.26C4.94 3.84 4.59 3.49 4.17 3.49C3.88 3.49 3.61 3.51 3.33 3.60C2.91 3.72 2.52 4.05 2.32 4.47C2.11 4.87 2.06 5.32 2.06 5.84L2.06 6.03L1.69 6.03C1.26 6.03 0.91 6.37 0.91 6.80C0.91 7.22 1.26 7.57 1.69 7.57L2.06 7.57L2.06 12.52C2.06 12.94 2.39 13.29 2.83 13.29C3.26 13.29 3.60 12.94 3.60 12.52L3.60 7.57L4.02 7.57C4.44 7.57 4.79 7.22 4.79 6.80C4.79 6.37 4.44 6.03 4.02 6.03L3.60 6.03L3.60 5.84C3.60 5.32 3.71 5.12 3.72 5.12ZM7.14 6.31C6.72 6.31 6.38 6.64 6.38 7.08L6.38 12.54C6.38 12.96 6.72 13.30 7.14 13.30C7.57 13.30 7.90 12.96 7.90 12.54L7.90 7.08C7.90 6.64 7.57 6.31 7.14 6.31ZM7.90 4.26C7.90 3.84 7.57 3.50 7.14 3.50C6.72 3.50 6.38 3.84 6.38 4.26L6.38 4.55C6.38 4.97 6.72 5.32 7.14 5.32C7.57 5.32 7.90 4.97 7.90 4.55L7.90 4.26ZM15.23 7.46C15.26 7.45 15.27 7.42 15.30 7.39C15.30 7.36 15.30 7.35 15.30 7.35C15.33 7.34 15.34 7.31 15.34 7.28C15.36 7.25 15.36 7.22 15.36 7.21C15.37 7.18 15.37 7.17 15.37 7.13C15.37 7.13 15.37 7.08 15.39 7.06C15.39 7.06 15.39 7.04 15.39 7.04C15.39 7.03 15.37 7.00 15.37 6.99C15.37 6.96 15.37 6.93 15.37 6.90C15.36 6.89 15.36 6.86 15.34 6.83C15.34 6.80 15.34 6.78 15.33 6.76C15.33 6.73 15.30 6.72 15.30 6.68C15.27 6.68 15.27 6.66 15.26 6.65C15.25 6.64 15.23 6.62 15.22 6.59C15.20 6.58 15.19 6.55 15.18 6.55C15.15 6.51 15.12 6.50 15.11 6.48C15.11 6.47 15.09 6.45 15.08 6.45C15.08 6.45 15.08 6.44 15.06 6.44C15.04 6.43 15.01 6.40 14.98 6.40C14.97 6.40 14.95 6.37 14.94 6.36C14.92 6.36 14.90 6.34 14.87 6.34C14.85 6.33 14.83 6.33 14.80 6.31C14.77 6.31 14.77 6.31 14.73 6.31C14.70 6.31 14.67 6.30 14.64 6.30C14.64 6.30 14.64 6.30 14.64 6.30L10.60 6.30C10.21 6.30 9.86 6.64 9.86 7.04C9.86 7.46 10.21 7.78 10.60 7.78L13.16 7.78L10.01 12.14C10.01 12.14 10.01 12.14 10.00 12.14C9.98 12.15 9.95 12.18 9.95 12.21C9.95 12.21 9.93 12.25 9.91 12.25C9.91 12.26 9.90 12.29 9.90 12.32C9.88 12.35 9.88 12.38 9.87 12.39C9.87 12.42 9.87 12.43 9.87 12.45C9.87 12.47 9.86 12.52 9.86 12.54C9.86 12.56 9.86 12.56 9.86 12.56C9.86 12.57 9.86 12.59 9.87 12.60C9.87 12.63 9.87 12.67 9.87 12.70C9.87 12.71 9.88 12.74 9.88 12.75C9.90 12.80 9.90 12.82 9.91 12.82C9.91 12.87 9.93 12.88 9.95 12.89C9.95 12.92 9.95 12.94 9.98 12.95C10.00 12.96 10.01 12.98 10.02 13.01C10.04 13.02 10.05 13.03 10.08 13.08C10.08 13.08 10.12 13.10 10.14 13.12C10.15 13.13 10.16 13.15 10.18 13.15C10.18 13.16 10.18 13.16 10.19 13.16C10.19 13.17 10.21 13.17 10.22 13.20C10.23 13.20 10.26 13.23 10.28 13.23C10.29 13.24 10.30 13.24 10.33 13.26C10.36 13.26 10.39 13.27 10.42 13.29C10.43 13.29 10.44 13.29 10.46 13.29C10.51 13.30 10.56 13.30 10.60 13.30C10.60 13.30 10.60 13.30 10.60 13.30C10.60 13.30 10.60 13.30 10.60 13.30L14.64 13.30C15.04 13.30 15.39 12.96 15.39 12.56C15.39 12.14 15.04 11.82 14.64 11.82L12.07 11.82L15.23 7.48C15.23 7.46 15.23 7.46 15.23 7.46ZM22.99 7.46C23.02 7.45 23.03 7.42 23.06 7.39C23.06 7.36 23.06 7.35 23.06 7.35C23.09 7.34 23.10 7.31 23.10 7.28C23.11 7.25 23.11 7.22 23.11 7.21C23.13 7.18 23.13 7.17 23.13 7.13C23.13 7.13 23.13 7.08 23.14 7.06C23.14 7.06 23.14 7.04 23.14 7.04C23.14 7.03 23.13 7.00 23.13 6.99C23.13 6.96 23.13 6.93 23.13 6.90C23.11 6.89 23.11 6.86 23.10 6.83C23.10 6.80 23.10 6.78 23.09 6.76C23.09 6.73 23.06 6.72 23.06 6.68C23.03 6.68 23.03 6.66 23.02 6.65C23.00 6.64 22.99 6.62 22.97 6.59C22.96 6.58 22.95 6.55 22.93 6.55C22.90 6.51 22.88 6.50 22.86 6.48C22.86 6.47 22.85 6.45 22.83 6.45C22.83 6.45 22.83 6.44 22.82 6.44C22.79 6.43 22.76 6.40 22.74 6.40C22.72 6.40 22.71 6.37 22.69 6.36C22.68 6.36 22.65 6.34 22.62 6.34C22.61 6.33 22.58 6.33 22.55 6.31C22.53 6.31 22.53 6.31 22.48 6.31C22.46 6.31 22.43 6.30 22.40 6.30C22.40 6.30 22.40 6.30 22.40 6.30L18.35 6.30C17.96 6.30 17.61 6.64 17.61 7.04C17.61 7.46 17.96 7.78 18.35 7.78L20.92 7.78L17.77 12.14C17.77 12.14 17.77 12.14 17.75 12.14C17.74 12.15 17.71 12.18 17.71 12.21C17.71 12.21 17.68 12.25 17.67 12.25C17.67 12.26 17.65 12.29 17.65 12.32C17.64 12.35 17.64 12.38 17.63 12.39C17.63 12.42 17.63 12.43 17.63 12.45C17.63 12.47 17.61 12.52 17.61 12.54C17.61 12.56 17.61 12.56 17.61 12.56C17.61 12.57 17.61 12.59 17.63 12.60C17.63 12.63 17.63 12.67 17.63 12.70C17.63 12.71 17.64 12.74 17.64 12.75C17.65 12.80 17.65 12.82 17.67 12.82C17.67 12.87 17.68 12.88 17.71 12.89C17.71 12.92 17.71 12.94 17.74 12.95C17.75 12.96 17.77 12.98 17.78 13.01C17.79 13.02 17.81 13.03 17.84 13.08C17.84 13.08 17.88 13.10 17.89 13.12C17.91 13.13 17.92 13.15 17.93 13.15C17.93 13.16 17.93 13.16 17.95 13.16C17.95 13.17 17.96 13.17 17.98 13.20C17.99 13.20 18.02 13.23 18.03 13.23C18.05 13.24 18.06 13.24 18.09 13.26C18.12 13.26 18.14 13.27 18.17 13.29C18.19 13.29 18.20 13.29 18.21 13.29C18.27 13.30 18.31 13.30 18.35 13.30C18.35 13.30 18.35 13.30 18.35 13.30C18.35 13.30 18.35 13.30 18.35 13.30L22.40 13.30C22.79 13.30 23.14 12.96 23.14 12.56C23.14 12.14 22.79 11.82 22.40 11.82L19.82 11.82L22.99 7.48C22.99 7.46 22.99 7.46 22.99 7.46ZM30.34 6.30C29.92 6.30 29.61 6.62 29.61 7.04L29.61 10.35C29.61 11.16 28.97 11.77 28.17 11.77C27.37 11.77 26.71 11.16 26.71 10.35L26.71 7.04C26.71 6.62 26.40 6.30 25.97 6.30C25.59 6.30 25.24 6.62 25.24 7.04L25.24 10.35C25.24 11.96 26.56 13.29 28.17 13.29C28.63 13.29 29.11 13.17 29.50 12.95C29.27 13.68 28.57 14.21 27.75 14.22C27.47 14.22 27.20 14.15 26.94 14.03C26.60 13.85 26.12 14 25.94 14.34C25.77 14.73 25.91 15.16 26.31 15.33C26.73 15.54 27.24 15.68 27.75 15.68C29.61 15.68 31.09 14.21 31.09 12.33L31.09 10.35C31.09 10.35 31.09 10.35 31.09 10.35L31.09 7.04C31.09 6.62 30.74 6.30 30.34 6.30ZM38.25 12.54C38.25 12.95 38.58 13.30 39.00 13.30C39.38 13.30 39.68 13.03 39.75 12.70C40.28 13.06 40.95 13.30 41.65 13.30C43.54 13.30 45.05 11.70 45.05 9.81C45.05 7.90 43.54 6.30 41.65 6.30C40.96 6.30 40.29 6.52 39.77 6.89L39.77 4.26C39.77 3.85 39.44 3.50 39.00 3.50C38.58 3.50 38.25 3.85 38.25 4.26L38.25 9.80C38.25 9.80 38.25 9.80 38.25 9.81C38.25 9.81 38.25 9.81 38.25 9.81L38.25 12.54ZM40.33 8.40C40.68 8.04 41.13 7.83 41.65 7.83C42.15 7.83 42.62 8.04 42.97 8.40C43.32 8.75 43.53 9.25 43.53 9.81C43.53 10.35 43.32 10.85 42.97 11.20C42.62 11.56 42.15 11.77 41.65 11.77C41.13 11.77 40.68 11.56 40.33 11.20C39.98 10.85 39.77 10.35 39.77 9.81C39.77 9.25 39.98 8.75 40.33 8.40ZM50.41 13.30C51.41 13.30 52.23 13.01 52.92 12.38C53.24 12.08 53.10 11.66 52.92 11.47C52.74 11.24 52.16 11.20 51.87 11.51C51.52 11.77 50.92 11.90 50.41 11.86C49.92 11.82 49.36 11.56 49.07 11.23C48.82 10.99 48.66 10.63 48.59 10.30L53.05 10.30C53.44 10.30 53.73 10.08 53.77 9.74C53.79 9.72 53.79 9.65 53.79 9.62C53.79 9.62 53.79 9.62 53.79 9.62C53.79 9.62 53.79 9.62 53.79 9.62C53.79 9.59 53.79 9.56 53.79 9.55C53.68 7.66 52.23 6.30 50.41 6.30C48.50 6.30 47.01 7.90 47.00 9.80C47.01 11.70 48.50 13.29 50.41 13.30ZM50.41 7.63C51.63 7.73 52.35 8.55 52.49 9.11L48.52 9.11C48.64 8.54 49.22 7.69 50.41 7.63ZM61.94 7.06C61.94 6.64 61.60 6.30 61.19 6.30C60.83 6.30 60.55 6.57 60.47 6.92C59.93 6.54 59.30 6.30 58.60 6.30C57.65 6.30 56.83 6.71 56.22 7.35C55.62 7.98 55.27 8.85 55.27 9.81C55.27 10.77 55.62 11.63 56.22 12.28C56.83 12.91 57.65 13.30 58.60 13.30C58.60 13.30 58.60 13.30 58.60 13.30C59.30 13.30 59.93 13.08 60.47 12.70C60.55 13.03 60.83 13.30 61.19 13.30C61.60 13.30 61.94 12.96 61.94 12.56L61.94 9.81C61.94 9.81 61.94 9.81 61.94 9.81C61.94 9.81 61.94 9.81 61.94 9.81L61.94 7.06ZM59.91 11.26C59.57 11.61 59.09 11.80 58.60 11.80C58.10 11.80 57.62 11.61 57.30 11.26C56.97 10.89 56.77 10.39 56.77 9.81C56.77 9.23 56.97 8.72 57.30 8.37C57.62 7.99 58.10 7.80 58.60 7.80C59.09 7.80 59.57 7.99 59.91 8.37C60.24 8.72 60.45 9.23 60.45 9.81C60.45 10.39 60.24 10.89 59.91 11.26ZM67.05 6.30L66.70 6.30L66.70 4.27C66.70 3.84 66.36 3.50 65.93 3.50C65.49 3.50 65.14 3.84 65.14 4.27L65.14 4.27L65.14 6.30L64.74 6.30C64.30 6.30 63.97 6.64 63.97 7.07C63.97 7.49 64.30 7.84 64.74 7.84L65.14 7.84L65.14 11.75C65.14 12.60 65.84 13.30 66.70 13.30C67.13 13.30 67.47 12.96 67.47 12.53C67.47 12.10 67.13 11.75 66.70 11.75C66.70 11.75 66.70 11.75 66.70 11.75L66.70 7.84L67.05 7.84C67.47 7.84 67.83 7.49 67.83 7.07C67.83 6.64 67.47 6.30 67.05 6.30ZM70.04 12.33L70.04 12.33C70.60 12.78 71.44 13.29 72.53 13.30L72.53 13.30C73.22 13.30 73.85 13.09 74.35 12.74L74.35 12.74C74.86 12.38 75.24 11.80 75.24 11.12L75.24 11.12C75.24 10.79 75.14 10.47 74.97 10.19L74.97 10.19C74.73 9.80 74.35 9.53 73.98 9.37L73.98 9.37C73.57 9.17 73.14 9.04 72.67 8.96L72.66 8.96L72.65 8.95L72.65 8.95C72.17 8.86 71.81 8.74 71.62 8.61L71.62 8.61C71.53 8.55 71.48 8.50 71.47 8.47L71.47 8.47C71.44 8.43 71.44 8.41 71.44 8.36L71.44 8.36C71.44 8.29 71.48 8.16 71.67 8.04L71.67 8.04C71.85 7.90 72.16 7.78 72.51 7.78L72.51 7.78C72.95 7.78 73.35 8.01 73.79 8.30L73.79 8.30C74.14 8.54 74.61 8.44 74.83 8.11L74.83 8.11C75.04 7.76 74.94 7.29 74.61 7.07L74.61 7.07L74.61 7.07C74.16 6.76 73.47 6.30 72.51 6.30L72.51 6.30C71.86 6.30 71.27 6.48 70.78 6.82L70.78 6.82C70.32 7.17 69.96 7.71 69.96 8.36L69.96 8.36C69.96 8.68 70.04 8.99 70.20 9.24L70.20 9.24C70.45 9.62 70.78 9.87 71.16 10.05L71.16 10.05C71.53 10.22 71.95 10.33 72.38 10.42L72.39 10.42L72.39 10.42L72.39 10.42L72.39 10.42C72.90 10.51 73.32 10.67 73.51 10.81L73.51 10.81C73.63 10.88 73.68 10.93 73.70 10.98L73.70 10.98C73.72 11.02 73.74 11.05 73.74 11.12L73.74 11.12C73.74 11.23 73.68 11.37 73.49 11.54L73.49 11.54C73.26 11.68 72.91 11.80 72.53 11.80L72.53 11.80C71.99 11.82 71.36 11.49 70.99 11.19L70.99 11.19C70.69 10.92 70.20 10.96 69.94 11.30L69.94 11.30C69.69 11.61 69.73 12.08 70.04 12.33Z"></path></g><defs data-v-fde0c5aa=""><linearGradient data-v-fde0c5aa="" gradientTransform="rotate(25)" id="880a7edc-5e72-44f5-b536-2084a481e3bd" x1="0%" y1="0%" x2="100%" y2="0%"><stop data-v-fde0c5aa="" offset="0%" stop-color="#B4373D" stop-opacity="1"></stop><stop data-v-fde0c5aa="" offset="100%" stop-color="#B23ACB" stop-opacity="1"></stop></linearGradient></defs><g data-v-fde0c5aa="" id="b0c3f00f-bd88-4865-9958-65a448636db2" stroke="none" fill="url(#880a7edc-5e72-44f5-b536-2084a481e3bd)" transform="matrix(1.4222921465481584,0,0,1.4222921465481584,108.03313795703251,76.98226223388374)"><path d="M57.707 16.293A.997.997 0 0 0 57 16h-.421a9.138 9.138 0 0 0-.383-1h.317c1.379 0 2.5-1.121 2.5-2.5s-1.121-2.5-2.5-2.5h-4.672a22.906 22.906 0 0 0-2.997-1.844l6.036-3.47a2.504 2.504 0 0 0 .915-3.416C55.131.121 53.533-.309 52.382.354l-9.503 5.463C39.811 4.925 36.492 4.365 33 4.135V4a.996.996 0 0 0-.293-.707l-1-1A.997.997 0 0 0 31 2h-2a.997.997 0 0 0-.707.293l-1 1A.996.996 0 0 0 27 4v.081c-3.52.167-6.953.69-10.081 1.529a1.002 1.002 0 0 0-.212-.317l-1-1A.997.997 0 0 0 15 4h-2a.997.997 0 0 0-.707.293l-1 1A1 1 0 0 0 11 6v1.731C6.44 9.897 3.433 12.791 2.401 16H2a1 1 0 0 0-.707.293l-1 1A.996.996 0 0 0 0 18v2c0 .266.105.519.293.707l1 1c.188.187.442.293.707.293v21a1 1 0 0 0-.707.293l-1 1A.996.996 0 0 0 0 45v2c0 .266.105.519.293.707l1 1c.188.187.442.293.707.293h2c.005 0 .009-.003.014-.003 1.536 2.01 3.927 3.809 6.986 5.264V55c0 .266.106.519.293.707l1 1c.187.187.442.293.707.293h2c.265 0 .52-.106.707-.293l.504-.504c3.311.953 7.003 1.536 10.789 1.716V58c0 .266.105.519.293.707l1 1c.187.187.442.293.707.293h2c.265 0 .52-.106.707-.293l1-1A.997.997 0 0 0 33 58v-.138c3.727-.248 7.334-.895 10.554-1.894l.739.739c.188.187.442.293.707.293h2c.265 0 .52-.106.707-.293l1-1A.997.997 0 0 0 49 55v-1.236c2.577-1.358 4.627-2.985 5.991-4.766L55 49h2c.265 0 .52-.106.707-.293l1-1A.997.997 0 0 0 59 47v-2a.996.996 0 0 0-.293-.707l-1-1A.997.997 0 0 0 57 43V22c.265 0 .52-.106.707-.293l1-1A.997.997 0 0 0 59 20v-2a.996.996 0 0 0-.293-.707l-1-1zM46.788 9.369c.442.203.87.413 1.283.631h-2.434l.027-.015 1.124-.616zm-34.752.081l.257.257.293.293h2.828l1.293-1.293.293-.293v-.78c3.072-.862 6.496-1.4 10-1.572v.352l.293.293L28.586 8h2.828l1.293-1.293.293-.293v-.293c2.592.177 5.079.547 7.428 1.105L35.604 10H24.018c-.706 0-1.421.045-2.126.133l-7.648.956a1.407 1.407 0 0 0-1.246 1.411c0 .727.524 1.321 1.246 1.411l7.648.956c.705.088 1.42.133 2.126.133h2.887l-2.502 1.438c-.613.355-1.21.75-1.775 1.178l-6.146 4.653a1.39 1.39 0 0 0-.536.926c-.032.215-.03.436.044.656l.005.008c.041.12.102.228.171.329.028.042.057.081.089.119.044.052.093.098.144.143.091.083.19.151.299.207.027.014.053.03.081.042.073.032.147.058.226.077.055.014.111.02.167.027.054.007.105.026.16.026.192 0 .381-.039.562-.116l7.103-2.996a17.326 17.326 0 0 0 1.905-.948L36.939 15h17.003c.216.355.4.721.55 1.094l-1.199 1.199-.293.293v2.828l.293.293.876.876c-.015.028-.024.057-.039.085-.082.149-.185.294-.278.441-.125.196-.245.393-.389.585-.111.148-.24.293-.362.439-.154.183-.306.367-.476.546-.139.145-.293.287-.442.429-.181.172-.363.344-.559.512-.165.14-.342.276-.517.413-.207.162-.415.323-.637.479-.189.134-.387.264-.586.394a18.753 18.753 0 0 1-1.358.816 24.027 24.027 0 0 1-1.489.758 28.93 28.93 0 0 1-1.605.694c-.299.12-.605.234-.915.347a33.97 33.97 0 0 1-.799.282c-.319.107-.647.209-.976.309-.277.084-.554.169-.837.248-.34.095-.687.183-1.036.271-.287.072-.573.146-.866.212-.361.083-.731.157-1.1.231-.293.059-.583.12-.881.174-.385.069-.778.128-1.171.188-.293.045-.582.094-.879.134-.418.056-.844.099-1.269.144-.281.03-.558.066-.841.091-.477.042-.962.07-1.447.099-.238.014-.473.035-.714.046-.727.032-1.461.05-2.201.05s-1.474-.018-2.201-.05c-.24-.011-.476-.032-.714-.046-.484-.029-.969-.057-1.447-.099-.283-.025-.56-.061-.841-.091-.425-.045-.851-.088-1.269-.144-.296-.04-.586-.089-.879-.134-.392-.06-.786-.119-1.171-.188-.298-.054-.588-.115-.881-.174-.369-.074-.739-.148-1.1-.231-.293-.066-.579-.14-.866-.212-.348-.088-.696-.176-1.036-.271-.283-.079-.56-.164-.837-.248-.329-.1-.657-.202-.976-.309a33.97 33.97 0 0 1-.799-.282 30.56 30.56 0 0 1-2.52-1.041 23.097 23.097 0 0 1-1.488-.758 19.957 19.957 0 0 1-1.945-1.21 16.03 16.03 0 0 1-.637-.479c-.175-.137-.352-.273-.517-.413-.196-.168-.378-.34-.559-.512-.149-.142-.303-.284-.442-.429-.17-.179-.322-.363-.476-.546-.122-.146-.251-.291-.362-.439-.144-.192-.264-.389-.389-.585-.093-.147-.195-.292-.278-.441-.015-.028-.024-.057-.039-.085l.876-.876.293-.293v-2.828l-1.505-1.505c1.035-2.511 3.656-4.822 7.541-6.631zM5.61 47.805l.39-.391v-2.828l-1.293-1.293L4.414 43H4V23.977c.212.277.45.547.694.814.045.05.082.102.128.152.328.349.683.689 1.061 1.021.111.097.234.19.35.286.277.23.559.459.859.68.16.118.328.23.494.345.278.193.561.382.857.567a23.62 23.62 0 0 0 1.493.856 23.703 23.703 0 0 0 1.645.804c.205.093.406.187.616.276.262.112.533.217.803.323V51h-.414l-1.224 1.224c-2.529-1.268-4.491-2.775-5.752-4.419zM17 53v-.414l-.293-.293L15.414 51H15V30.818c.264.086.521.177.791.258.141.043.289.079.431.121.498.144 1 .283 1.514.411.238.059.483.111.724.167.433.1.868.197 1.311.285.271.054.545.103.82.152a47.666 47.666 0 0 0 2.16.339c.449.06.902.112 1.358.16.282.029.562.06.847.085.5.044 1.006.077 1.514.106.246.014.489.034.737.045A53.12 53.12 0 0 0 29 32.99V54h-.414l-1.293 1.293-.293.293v.351c-3.506-.171-6.927-.709-10-1.57V53zm15.707 2.293L31.414 54H31V32.97c.264-.008.53-.012.793-.023.248-.011.491-.031.738-.045a49.625 49.625 0 0 0 1.513-.106c.285-.025.565-.056.847-.085a48.053 48.053 0 0 0 2.217-.282c.438-.067.871-.139 1.301-.217.275-.049.549-.098.82-.152a43.32 43.32 0 0 0 1.311-.285c.241-.056.486-.108.724-.167a41.238 41.238 0 0 0 1.514-.411c.142-.042.29-.078.431-.121A36.834 36.834 0 0 0 45 30.487V51h-.414l-1.293 1.293-.293.293v1.483c-3.04.947-6.464 1.566-10 1.81v-.293l-.293-.293zM54.586 43l-1.293 1.293-.293.293v2.828l.39.391c-1.147 1.493-2.885 2.884-5.094 4.077L47.414 51H47V29.699c.145-.062.277-.133.419-.197.35-.158.695-.317 1.029-.484.21-.104.413-.212.616-.32a25.018 25.018 0 0 0 1.492-.856c.297-.185.58-.375.859-.567.165-.115.334-.228.493-.345.3-.221.583-.45.859-.68.116-.096.239-.189.35-.286a15.41 15.41 0 0 0 1.061-1.021c.046-.05.083-.102.128-.152.244-.267.482-.537.694-.814V43h-.414z"></path></g><!----></svg>