<svg data-v-fde0c5aa="" xmlns="http://www.w3.org/2000/svg" viewBox="0 0 300 300" class="iconAbove"><!----><defs data-v-fde0c5aa=""><!----></defs><rect data-v-fde0c5aa="" fill="transparent" x="0" y="0" width="300px" height="300px" class="logo-background-square"></rect><defs data-v-fde0c5aa=""><!----></defs><g data-v-fde0c5aa="" id="f726e7cc-7b9b-4804-bd50-cdbfe96a9fbc" fill="#000000" transform="matrix(3.4979149775608738,0,0,3.4979149775608738,16.81689727868316,168.11206941723145)"><path d="M3.72 5.12C3.74 5.11 3.75 5.10 3.81 5.08C3.86 5.05 3.99 5.04 4.17 5.04C4.59 5.04 4.94 4.69 4.94 4.26C4.94 3.84 4.59 3.49 4.17 3.49C3.88 3.49 3.61 3.51 3.33 3.60C2.91 3.72 2.52 4.05 2.32 4.47C2.11 4.87 2.06 5.32 2.06 5.84L2.06 6.03L1.69 6.03C1.26 6.03 0.91 6.37 0.91 6.80C0.91 7.22 1.26 7.57 1.69 7.57L2.06 7.57L2.06 12.52C2.06 12.94 2.39 13.29 2.83 13.29C3.26 13.29 3.60 12.94 3.60 12.52L3.60 7.57L4.02 7.57C4.44 7.57 4.79 7.22 4.79 6.80C4.79 6.37 4.44 6.03 4.02 6.03L3.60 6.03L3.60 5.84C3.60 5.32 3.71 5.12 3.72 5.12ZM7.14 6.31C6.72 6.31 6.38 6.64 6.38 7.08L6.38 12.54C6.38 12.96 6.72 13.30 7.14 13.30C7.57 13.30 7.90 12.96 7.90 12.54L7.90 7.08C7.90 6.64 7.57 6.31 7.14 6.31ZM7.90 4.26C7.90 3.84 7.57 3.50 7.14 3.50C6.72 3.50 6.38 3.84 6.38 4.26L6.38 4.55C6.38 4.97 6.72 5.32 7.14 5.32C7.57 5.32 7.90 4.97 7.90 4.55L7.90 4.26ZM15.23 7.46C15.26 7.45 15.27 7.42 15.30 7.39C15.30 7.36 15.30 7.35 15.30 7.35C15.33 7.34 15.34 7.31 15.34 7.28C15.36 7.25 15.36 7.22 15.36 7.21C15.37 7.18 15.37 7.17 15.37 7.13C15.37 7.13 15.37 7.08 15.39 7.06C15.39 7.06 15.39 7.04 15.39 7.04C15.39 7.03 15.37 7.00 15.37 6.99C15.37 6.96 15.37 6.93 15.37 6.90C15.36 6.89 15.36 6.86 15.34 6.83C15.34 6.80 15.34 6.78 15.33 6.76C15.33 6.73 15.30 6.72 15.30 6.68C15.27 6.68 15.27 6.66 15.26 6.65C15.25 6.64 15.23 6.62 15.22 6.59C15.20 6.58 15.19 6.55 15.18 6.55C15.15 6.51 15.12 6.50 15.11 6.48C15.11 6.47 15.09 6.45 15.08 6.45C15.08 6.45 15.08 6.44 15.06 6.44C15.04 6.43 15.01 6.40 14.98 6.40C14.97 6.40 14.95 6.37 14.94 6.36C14.92 6.36 14.90 6.34 14.87 6.34C14.85 6.33 14.83 6.33 14.80 6.31C14.77 6.31 14.77 6.31 14.73 6.31C14.70 6.31 14.67 6.30 14.64 6.30C14.64 6.30 14.64 6.30 14.64 6.30L10.60 6.30C10.21 6.30 9.86 6.64 9.86 7.04C9.86 7.46 10.21 7.78 10.60 7.78L13.16 7.78L10.01 12.14C10.01 12.14 10.01 12.14 10.00 12.14C9.98 12.15 9.95 12.18 9.95 12.21C9.95 12.21 9.93 12.25 9.91 12.25C9.91 12.26 9.90 12.29 9.90 12.32C9.88 12.35 9.88 12.38 9.87 12.39C9.87 12.42 9.87 12.43 9.87 12.45C9.87 12.47 9.86 12.52 9.86 12.54C9.86 12.56 9.86 12.56 9.86 12.56C9.86 12.57 9.86 12.59 9.87 12.60C9.87 12.63 9.87 12.67 9.87 12.70C9.87 12.71 9.88 12.74 9.88 12.75C9.90 12.80 9.90 12.82 9.91 12.82C9.91 12.87 9.93 12.88 9.95 12.89C9.95 12.92 9.95 12.94 9.98 12.95C10.00 12.96 10.01 12.98 10.02 13.01C10.04 13.02 10.05 13.03 10.08 13.08C10.08 13.08 10.12 13.10 10.14 13.12C10.15 13.13 10.16 13.15 10.18 13.15C10.18 13.16 10.18 13.16 10.19 13.16C10.19 13.17 10.21 13.17 10.22 13.20C10.23 13.20 10.26 13.23 10.28 13.23C10.29 13.24 10.30 13.24 10.33 13.26C10.36 13.26 10.39 13.27 10.42 13.29C10.43 13.29 10.44 13.29 10.46 13.29C10.51 13.30 10.56 13.30 10.60 13.30C10.60 13.30 10.60 13.30 10.60 13.30C10.60 13.30 10.60 13.30 10.60 13.30L14.64 13.30C15.04 13.30 15.39 12.96 15.39 12.56C15.39 12.14 15.04 11.82 14.64 11.82L12.07 11.82L15.23 7.48C15.23 7.46 15.23 7.46 15.23 7.46ZM22.99 7.46C23.02 7.45 23.03 7.42 23.06 7.39C23.06 7.36 23.06 7.35 23.06 7.35C23.09 7.34 23.10 7.31 23.10 7.28C23.11 7.25 23.11 7.22 23.11 7.21C23.13 7.18 23.13 7.17 23.13 7.13C23.13 7.13 23.13 7.08 23.14 7.06C23.14 7.06 23.14 7.04 23.14 7.04C23.14 7.03 23.13 7.00 23.13 6.99C23.13 6.96 23.13 6.93 23.13 6.90C23.11 6.89 23.11 6.86 23.10 6.83C23.10 6.80 23.10 6.78 23.09 6.76C23.09 6.73 23.06 6.72 23.06 6.68C23.03 6.68 23.03 6.66 23.02 6.65C23.00 6.64 22.99 6.62 22.97 6.59C22.96 6.58 22.95 6.55 22.93 6.55C22.90 6.51 22.88 6.50 22.86 6.48C22.86 6.47 22.85 6.45 22.83 6.45C22.83 6.45 22.83 6.44 22.82 6.44C22.79 6.43 22.76 6.40 22.74 6.40C22.72 6.40 22.71 6.37 22.69 6.36C22.68 6.36 22.65 6.34 22.62 6.34C22.61 6.33 22.58 6.33 22.55 6.31C22.53 6.31 22.53 6.31 22.48 6.31C22.46 6.31 22.43 6.30 22.40 6.30C22.40 6.30 22.40 6.30 22.40 6.30L18.35 6.30C17.96 6.30 17.61 6.64 17.61 7.04C17.61 7.46 17.96 7.78 18.35 7.78L20.92 7.78L17.77 12.14C17.77 12.14 17.77 12.14 17.75 12.14C17.74 12.15 17.71 12.18 17.71 12.21C17.71 12.21 17.68 12.25 17.67 12.25C17.67 12.26 17.65 12.29 17.65 12.32C17.64 12.35 17.64 12.38 17.63 12.39C17.63 12.42 17.63 12.43 17.63 12.45C17.63 12.47 17.61 12.52 17.61 12.54C17.61 12.56 17.61 12.56 17.61 12.56C17.61 12.57 17.61 12.59 17.63 12.60C17.63 12.63 17.63 12.67 17.63 12.70C17.63 12.71 17.64 12.74 17.64 12.75C17.65 12.80 17.65 12.82 17.67 12.82C17.67 12.87 17.68 12.88 17.71 12.89C17.71 12.92 17.71 12.94 17.74 12.95C17.75 12.96 17.77 12.98 17.78 13.01C17.79 13.02 17.81 13.03 17.84 13.08C17.84 13.08 17.88 13.10 17.89 13.12C17.91 13.13 17.92 13.15 17.93 13.15C17.93 13.16 17.93 13.16 17.95 13.16C17.95 13.17 17.96 13.17 17.98 13.20C17.99 13.20 18.02 13.23 18.03 13.23C18.05 13.24 18.06 13.24 18.09 13.26C18.12 13.26 18.14 13.27 18.17 13.29C18.19 13.29 18.20 13.29 18.21 13.29C18.27 13.30 18.31 13.30 18.35 13.30C18.35 13.30 18.35 13.30 18.35 13.30C18.35 13.30 18.35 13.30 18.35 13.30L22.40 13.30C22.79 13.30 23.14 12.96 23.14 12.56C23.14 12.14 22.79 11.82 22.40 11.82L19.82 11.82L22.99 7.48C22.99 7.46 22.99 7.46 22.99 7.46ZM30.34 6.30C29.92 6.30 29.61 6.62 29.61 7.04L29.61 10.35C29.61 11.16 28.97 11.77 28.17 11.77C27.37 11.77 26.71 11.16 26.71 10.35L26.71 7.04C26.71 6.62 26.40 6.30 25.97 6.30C25.59 6.30 25.24 6.62 25.24 7.04L25.24 10.35C25.24 11.96 26.56 13.29 28.17 13.29C28.63 13.29 29.11 13.17 29.50 12.95C29.27 13.68 28.57 14.21 27.75 14.22C27.47 14.22 27.20 14.15 26.94 14.03C26.60 13.85 26.12 14 25.94 14.34C25.77 14.73 25.91 15.16 26.31 15.33C26.73 15.54 27.24 15.68 27.75 15.68C29.61 15.68 31.09 14.21 31.09 12.33L31.09 10.35C31.09 10.35 31.09 10.35 31.09 10.35L31.09 7.04C31.09 6.62 30.74 6.30 30.34 6.30ZM38.25 12.54C38.25 12.95 38.58 13.30 39.00 13.30C39.38 13.30 39.68 13.03 39.75 12.70C40.28 13.06 40.95 13.30 41.65 13.30C43.54 13.30 45.05 11.70 45.05 9.81C45.05 7.90 43.54 6.30 41.65 6.30C40.96 6.30 40.29 6.52 39.77 6.89L39.77 4.26C39.77 3.85 39.44 3.50 39.00 3.50C38.58 3.50 38.25 3.85 38.25 4.26L38.25 9.80C38.25 9.80 38.25 9.80 38.25 9.81C38.25 9.81 38.25 9.81 38.25 9.81L38.25 12.54ZM40.33 8.40C40.68 8.04 41.13 7.83 41.65 7.83C42.15 7.83 42.62 8.04 42.97 8.40C43.32 8.75 43.53 9.25 43.53 9.81C43.53 10.35 43.32 10.85 42.97 11.20C42.62 11.56 42.15 11.77 41.65 11.77C41.13 11.77 40.68 11.56 40.33 11.20C39.98 10.85 39.77 10.35 39.77 9.81C39.77 9.25 39.98 8.75 40.33 8.40ZM50.41 13.30C51.41 13.30 52.23 13.01 52.92 12.38C53.24 12.08 53.10 11.66 52.92 11.47C52.74 11.24 52.16 11.20 51.87 11.51C51.52 11.77 50.92 11.90 50.41 11.86C49.92 11.82 49.36 11.56 49.07 11.23C48.82 10.99 48.66 10.63 48.59 10.30L53.05 10.30C53.44 10.30 53.73 10.08 53.77 9.74C53.79 9.72 53.79 9.65 53.79 9.62C53.79 9.62 53.79 9.62 53.79 9.62C53.79 9.62 53.79 9.62 53.79 9.62C53.79 9.59 53.79 9.56 53.79 9.55C53.68 7.66 52.23 6.30 50.41 6.30C48.50 6.30 47.01 7.90 47.00 9.80C47.01 11.70 48.50 13.29 50.41 13.30ZM50.41 7.63C51.63 7.73 52.35 8.55 52.49 9.11L48.52 9.11C48.64 8.54 49.22 7.69 50.41 7.63ZM61.94 7.06C61.94 6.64 61.60 6.30 61.19 6.30C60.83 6.30 60.55 6.57 60.47 6.92C59.93 6.54 59.30 6.30 58.60 6.30C57.65 6.30 56.83 6.71 56.22 7.35C55.62 7.98 55.27 8.85 55.27 9.81C55.27 10.77 55.62 11.63 56.22 12.28C56.83 12.91 57.65 13.30 58.60 13.30C58.60 13.30 58.60 13.30 58.60 13.30C59.30 13.30 59.93 13.08 60.47 12.70C60.55 13.03 60.83 13.30 61.19 13.30C61.60 13.30 61.94 12.96 61.94 12.56L61.94 9.81C61.94 9.81 61.94 9.81 61.94 9.81C61.94 9.81 61.94 9.81 61.94 9.81L61.94 7.06ZM59.91 11.26C59.57 11.61 59.09 11.80 58.60 11.80C58.10 11.80 57.62 11.61 57.30 11.26C56.97 10.89 56.77 10.39 56.77 9.81C56.77 9.23 56.97 8.72 57.30 8.37C57.62 7.99 58.10 7.80 58.60 7.80C59.09 7.80 59.57 7.99 59.91 8.37C60.24 8.72 60.45 9.23 60.45 9.81C60.45 10.39 60.24 10.89 59.91 11.26ZM67.05 6.30L66.70 6.30L66.70 4.27C66.70 3.84 66.36 3.50 65.93 3.50C65.49 3.50 65.14 3.84 65.14 4.27L65.14 4.27L65.14 6.30L64.74 6.30C64.30 6.30 63.97 6.64 63.97 7.07C63.97 7.49 64.30 7.84 64.74 7.84L65.14 7.84L65.14 11.75C65.14 12.60 65.84 13.30 66.70 13.30C67.13 13.30 67.47 12.96 67.47 12.53C67.47 12.10 67.13 11.75 66.70 11.75C66.70 11.75 66.70 11.75 66.70 11.75L66.70 7.84L67.05 7.84C67.47 7.84 67.83 7.49 67.83 7.07C67.83 6.64 67.47 6.30 67.05 6.30ZM70.04 12.33L70.04 12.33C70.60 12.78 71.44 13.29 72.53 13.30L72.53 13.30C73.22 13.30 73.85 13.09 74.35 12.74L74.35 12.74C74.86 12.38 75.24 11.80 75.24 11.12L75.24 11.12C75.24 10.79 75.14 10.47 74.97 10.19L74.97 10.19C74.73 9.80 74.35 9.53 73.98 9.37L73.98 9.37C73.57 9.17 73.14 9.04 72.67 8.96L72.66 8.96L72.65 8.95L72.65 8.95C72.17 8.86 71.81 8.74 71.62 8.61L71.62 8.61C71.53 8.55 71.48 8.50 71.47 8.47L71.47 8.47C71.44 8.43 71.44 8.41 71.44 8.36L71.44 8.36C71.44 8.29 71.48 8.16 71.67 8.04L71.67 8.04C71.85 7.90 72.16 7.78 72.51 7.78L72.51 7.78C72.95 7.78 73.35 8.01 73.79 8.30L73.79 8.30C74.14 8.54 74.61 8.44 74.83 8.11L74.83 8.11C75.04 7.76 74.94 7.29 74.61 7.07L74.61 7.07L74.61 7.07C74.16 6.76 73.47 6.30 72.51 6.30L72.51 6.30C71.86 6.30 71.27 6.48 70.78 6.82L70.78 6.82C70.32 7.17 69.96 7.71 69.96 8.36L69.96 8.36C69.96 8.68 70.04 8.99 70.20 9.24L70.20 9.24C70.45 9.62 70.78 9.87 71.16 10.05L71.16 10.05C71.53 10.22 71.95 10.33 72.38 10.42L72.39 10.42L72.39 10.42L72.39 10.42L72.39 10.42C72.90 10.51 73.32 10.67 73.51 10.81L73.51 10.81C73.63 10.88 73.68 10.93 73.70 10.98L73.70 10.98C73.72 11.02 73.74 11.05 73.74 11.12L73.74 11.12C73.74 11.23 73.68 11.37 73.49 11.54L73.49 11.54C73.26 11.68 72.91 11.80 72.53 11.80L72.53 11.80C71.99 11.82 71.36 11.49 70.99 11.19L70.99 11.19C70.69 10.92 70.20 10.96 69.94 11.30L69.94 11.30C69.69 11.61 69.73 12.08 70.04 12.33Z"></path></g><defs data-v-fde0c5aa=""><linearGradient data-v-fde0c5aa="" gradientTransform="rotate(25)" id="6750ce4a-ed6b-49c1-a4db-904b53b82232" x1="0%" y1="0%" x2="100%" y2="0%"><stop data-v-fde0c5aa="" offset="0%" stop-color="#B4373D" stop-opacity="1"></stop><stop data-v-fde0c5aa="" offset="100%" stop-color="#B23ACB" stop-opacity="1"></stop></linearGradient></defs><g data-v-fde0c5aa="" id="8fa81c1a-a7cc-4f3a-9642-7bd117c37b96" stroke="none" fill="url(#6750ce4a-ed6b-49c1-a4db-904b53b82232)" transform="matrix(0.22324388501635514,0,0,0.22324388501635514,94.49034803749151,77.04062183316722)"><path d="M464.7 0h-432C14.7 0 0 14.7 0 32.7v316.6c0 18 14.7 32.7 32.7 32.7h431.9c18 0 32.7-14.7 32.7-32.7V32.7c.1-18-14.6-32.7-32.6-32.7zm-432 20h432c6.9 0 12.7 5.8 12.7 12.7V100H20V32.7C20 25.8 25.8 20 32.7 20zm432 342h-432c-6.9 0-12.7-5.8-12.7-12.7V120h457.4v229.3c0 6.9-5.8 12.7-12.7 12.7z"></path><path d="M153.2 230.8h59.4c8.1 0 14.8-6.6 14.8-14.8v-60.9c0-8.1-6.6-14.8-14.8-14.8h-59.4c-8.1 0-14.8 6.6-14.8 14.8V216c0 8.2 6.6 14.8 14.8 14.8zM212.6 251.1h-59.4c-8.1 0-14.8 6.6-14.8 14.8v60.9c0 8.1 6.6 14.8 14.8 14.8h59.4c8.1 0 14.8-6.6 14.8-14.8v-60.9c0-8.2-6.6-14.8-14.8-14.8zm-5.2 70.4h-48.9v-50.4h48.9v50.4zM321.8 140.4h-59.4c-8.1 0-14.8 6.6-14.8 14.8v60.9c0 8.1 6.6 14.8 14.8 14.8h59.4c8.1 0 14.8-6.6 14.8-14.8v-60.9c-.1-8.2-6.7-14.8-14.8-14.8zm-5.3 70.4h-48.9v-50.4h48.9v50.4zM321.8 251.1h-59.4c-8.1 0-14.8 6.6-14.8 14.8v60.9c0 8.1 6.6 14.8 14.8 14.8h59.4c8.1 0 14.8-6.6 14.8-14.8v-60.9c-.1-8.2-6.7-14.8-14.8-14.8zM430.9 140.4h-59.4c-8.1 0-14.8 6.6-14.8 14.8v60.9c0 8.1 6.6 14.8 14.8 14.8h59.4c8.1 0 14.8-6.6 14.8-14.8v-60.9c0-8.2-6.7-14.8-14.8-14.8zm-5.2 70.4h-48.9v-50.4h48.9v50.4zM430.9 251.1h-59.4c-8.1 0-14.8 6.6-14.8 14.8v60.9c0 8.1 6.6 14.8 14.8 14.8h59.4c8.1 0 14.8-6.6 14.8-14.8v-60.9c0-8.2-6.7-14.8-14.8-14.8z"></path><circle cx="216.3" cy="60.8" r="11.1"></circle><circle cx="361.8" cy="60.8" r="11.1"></circle><circle cx="289" cy="60.8" r="11.1"></circle><circle cx="434.6" cy="60.8" r="11.1"></circle><circle cx="79.8" cy="166.6" r="22.2"></circle><circle cx="79.8" cy="241" r="22.2"></circle><circle cx="79.8" cy="315.3" r="22.2"></circle><path d="M60.4 77.6h101.4c5.8 0 10.6-4.7 10.6-10.6V54.5c0-5.8-4.7-10.6-10.6-10.6H60.4c-5.8 0-10.6 4.7-10.6 10.6V67c0 5.8 4.7 10.6 10.6 10.6z"></path></g><!----></svg>